<?xml version="1.0" encoding="UTF-8"?>
<svg width="193px" height="193px" viewBox="0 0 193 193" version="1.1" xmlns="http://www.w3.org/2000/svg" xmlns:xlink="http://www.w3.org/1999/xlink">
    <!-- Generator: Sketch 58 (84663) - https://sketch.com -->
    <title>НетВышке</title>
    <desc>Created with Sketch.</desc>
    <defs>
        <polygon id="path-1" points="0.0126827562 0.184988321 27.4177937 0.184988321 27.4177937 32.6057244 0.0126827562 32.6057244"></polygon>
        <polygon id="path-3" points="0.012594386 0.0606209849 131.174518 0.0606209849 131.174518 63.7629979 0.012594386 63.7629979"></polygon>
    </defs>
    <g id="Page-1" stroke="none" stroke-width="1" fill="none" fill-rule="evenodd">
        <g id="right_Vers" transform="translate(-881.000000, -324.000000)">
            <g id="НетВышке" transform="translate(881.000000, 324.000000)">
                <g id="Знак">
                    <g id="hse_logo_final-copy" transform="translate(100.500000, 97.500000) rotate(-360.000000) translate(-100.500000, -97.500000) translate(19.000000, 65.000000)">
                        <g id="Group-4">
                            <mask id="mask-2" fill="white">
                                <use xlink:href="#path-1"></use>
                            </mask>
                            <g id="Clip-2"></g>
                            <polyline id="Fill-1" fill="#FFFFFE" mask="url(#mask-2)" points="8.11442739 18.2960849 4.8260001 18.2960849 4.8260001 32.263866 0 32.263866 0 0.483929449 4.8260001 0.483929449 4.8260001 13.2130287 8.11442739 13.2130287 8.11442739 0.483929449 12.9404275 0.483929449 12.9404275 32.263866 8.11442739 32.263866 8.11442739 18.2960849"></polyline>
                            <path d="M21.1829507,32.6057244 L20.2433699,32.6057244 C16.3996492,32.6057244 14.3494817,30.5127137 14.3494817,26.5827161 L14.3494817,20.2182722 L19.1327832,20.2182722 L19.1327832,25.771093 C19.1327832,27.2235156 19.6026793,27.9924328 20.7130546,27.9924328 C21.8661285,27.9924328 22.2926919,27.2235156 22.2926919,25.2588339 L22.2926919,24.5326227 C22.2926919,22.2687884 22.0794102,21.4571654 20.3283443,19.1931197 L17.2536215,15.263545 C15.203454,12.6151464 14.6058848,10.5648416 14.6058848,7.40397258 L14.6058848,6.37860874 C14.6058848,2.14967 16.7410268,0.184988321 20.5418374,0.184988321 L21.4393538,0.184988321 C25.4107475,0.184988321 26.9478975,1.93635204 26.9478975,5.69531473 L26.9478975,10.9062772 L22.2926919,10.9062772 L22.2926919,6.33611428 C22.2926919,5.26804456 22.0794102,4.45642152 20.9265477,4.45642152 C19.7734738,4.45642152 19.5170707,5.18263281 19.5170707,6.67776128 L19.5170707,7.27564354 C19.5170707,9.06992455 19.8584482,10.0521597 21.4814183,12.1451704 L24.5567752,16.1176625 C26.7346159,18.9368845 27.4177937,20.5599192 27.4177937,24.1480584 L27.4177937,25.1732108 C27.4177937,29.8292083 25.4107475,32.6057244 21.1829507,32.6057244" id="Fill-3" fill="#FFFFFE" mask="url(#mask-2)"></path>
                        </g>
                        <polyline id="Fill-5" fill="#FFFFFE" points="39.6367859 0.442829186 39.6367859 5.07118369 33.5692351 5.07118369 33.5692351 13.427929 38.3307725 13.427929 38.3307725 18.2705101 33.5692351 18.2705101 33.5692351 27.4841616 39.8893137 27.4841616 39.8893137 32.3265306 28.8089488 32.3265306 28.8089488 0.442829186 39.6367859 0.442829186"></polyline>
                        <path d="M52.0020248,21.5702356 L50.7632503,9.78522882 L49.5659659,21.5702356 L52.0020248,21.5702356 Z M52.4980659,26.327126 L49.1118236,26.327126 L48.4923342,32.3265306 L44.3214597,32.3265306 L48.0790687,0.442829186 L53.612779,0.442829186 L57.6178976,32.3265306 L53.117351,32.3265306 L52.4980659,26.327126 L52.4980659,26.327126 Z" id="Fill-6" fill="#FFFFFE"></path>
                        <path d="M63.2350242,13.5562528 L64.4910037,13.5562528 C65.7892568,13.5562528 66.2076403,12.6993465 66.2076403,11.2850269 L66.2076403,6.8282658 C66.2076403,5.45700363 65.9150412,4.77105438 64.4910037,4.77105438 L63.2350242,4.77105438 L63.2350242,13.5562528 Z M63.2350242,32.3265306 L58.5043268,32.3265306 L58.5043268,0.442829186 L66.1659885,0.442829186 C69.3060409,0.442829186 70.8971003,1.81430346 70.8971003,5.37110089 L70.8971003,11.027955 C70.8971003,13.6850009 69.6831871,14.7135005 68.8453838,15.0991084 C69.8924824,15.5704068 70.8971003,16.4277373 70.8971003,18.5702152 L70.8971003,29.7553875 C70.8971003,31.0409591 71.148462,31.6410056 71.3575501,32.112304 L71.3575501,32.3265306 L66.6682974,32.3265306 C66.459002,31.9839802 66.2076403,31.426779 66.2076403,29.7127543 L66.2076403,20.1132828 C66.2076403,18.6989632 65.9566931,18.0991288 64.4497663,18.0991288 L63.2350242,18.0991288 L63.2350242,32.3265306 L63.2350242,32.3265306 Z" id="Fill-7" fill="#FFFFFE"></path>
                        <polyline id="Fill-8" fill="#FFFFFE" points="81.0541334 5.07118369 81.0541334 32.3265306 76.2870486 32.3265306 76.2870486 5.07118369 72.2439793 5.07118369 72.2439793 0.442829186 85.0972026 0.442829186 85.0972026 5.07118369 81.0541334 5.07118369"></polyline>
                        <path d="M97.2099683,21.5702356 L95.9712509,9.78522882 L94.7740218,21.5702356 L97.2099683,21.5702356 Z M97.7059866,26.327126 L94.319696,26.327126 L93.6998264,32.3265306 L89.5293486,32.3265306 L93.2873975,0.442829186 L98.8208526,0.442829186 L102.825787,32.3265306 L98.3248343,32.3265306 L97.7059866,26.327126 L97.7059866,26.327126 Z" id="Fill-9" fill="#FFFFFE"></path>
                        <polyline id="Fill-10" fill="#FFFFFE" points="108.053078 0.442829186 112.181815 17.5419276 112.181815 0.442829186 116.565439 0.442829186 116.565439 32.3265306 112.65009 32.3265306 108.053078 13.9851302 108.053078 32.3265306 103.712216 32.3265306 103.712216 0.442829186 108.053078 0.442829186"></polyline>
                        <g id="Group-14" transform="translate(0.000000, 0.442829)">
                            <mask id="mask-4" fill="white">
                                <use xlink:href="#path-3"></use>
                            </mask>
                            <g id="Clip-12"></g>
                            <path d="M123.243624,27.0151441 L124.388663,27.0151441 C125.83114,27.0151441 126.254941,26.2520329 126.254941,24.5567429 L126.254941,6.79919933 C126.254941,4.97679408 125.788319,4.3410079 124.600459,4.3410079 L123.243624,4.3410079 L123.243624,27.0151441 Z M118.45125,0.0606209849 L125.788319,0.0606209849 C129.902275,0.0606209849 131.174518,2.39169713 131.174518,6.12125115 L131.174518,25.3194346 C131.174518,29.1763137 129.732671,31.5919236 125.788319,31.5919236 L118.45125,31.5919236 L118.45125,0.0606209849 L118.45125,0.0606209849 Z" id="Fill-11" fill="#FFFFFE" mask="url(#mask-4)"></path>
                            <path d="M4.79237378,59.1860086 L5.93762328,59.1860086 C7.37947057,59.1860086 7.80390137,58.4228974 7.80390137,56.7278172 L7.80390137,38.9700638 C7.80390137,37.1478683 7.33727937,36.5118724 6.14941887,36.5118724 L4.79237378,36.5118724 L4.79237378,59.1860086 Z M0,32.2316952 L7.33727937,32.2316952 C11.4506058,32.2316952 12.7228487,34.5625616 12.7228487,38.2923254 L12.7228487,57.4905089 C12.7228487,61.347388 11.2810014,63.7629979 7.33727937,63.7629979 L0,63.7629979 L0,32.2316952 L0,32.2316952 Z" id="Fill-13" fill="#FFFFFE" mask="url(#mask-4)"></path>
                        </g>
                        <polyline id="Fill-15" fill="#FFFFFE" points="25.4535112 32.7693598 25.4535112 37.3975022 19.3868144 37.3975022 19.3868144 45.7544596 24.147547 45.7544596 24.147547 50.5968286 19.3868144 50.5968286 19.3868144 59.8104801 25.7064466 59.8104801 25.7064466 64.6530612 14.6260817 64.6530612 14.6260817 32.7693598 25.4535112 32.7693598"></polyline>
                        <path d="M32.8700359,64.6530612 L31.9459194,64.6530612 C28.1654618,64.6530612 26.1496612,62.5661186 26.1496612,58.6477257 L26.1496612,52.3017337 L30.8542354,52.3017337 L30.8542354,57.8384557 C30.8542354,59.2866674 31.3163975,60.0533553 32.4080816,60.0533553 C33.5419694,60.0533553 33.9623437,59.2866674 33.9623437,57.327471 L33.9623437,56.6033651 C33.9623437,54.3460942 33.7523644,53.5368243 32.030119,51.2793426 L29.0057945,47.3611605 C26.9895781,44.720651 26.4018442,42.6760797 26.4018442,39.5245855 L26.4018442,38.5021944 C26.4018442,34.2855163 28.5014285,32.3265306 32.2398903,32.3265306 L33.1224268,32.3265306 C37.0288719,32.3265306 38.5407224,34.072606 38.5407224,37.8208814 L38.5407224,43.0167362 L33.9623437,43.0167362 L33.9623437,38.4598231 C33.9623437,37.3946392 33.7523644,36.58558 32.6178529,36.58558 C31.4837572,36.58558 31.2319901,37.3096859 31.2319901,38.8002688 L31.2319901,39.3964177 C31.2319901,41.1854967 31.5681647,42.1650949 33.1642147,44.2520376 L36.1885392,48.2128017 C38.3303273,51.0238502 39.0028845,52.6423902 39.0028845,56.2201266 L39.0028845,57.2423068 C39.0028845,61.8848056 37.0288719,64.6530612 32.8700359,64.6530612" id="Fill-16" fill="#FFFFFE"></path>
                        <polygon id="Fill-17" fill="#FFFFFE" points="40.7757429 64.6530612 45.6511035 64.6530612 45.6511035 32.7693598 40.7757429 32.7693598"></polygon>
                        <path d="M51.5928173,64.6530612 C48.7746823,64.6530612 46.9807473,62.1467065 46.9807473,58.8756834 L46.9807473,39.1229758 C46.9807473,35.5973435 48.3475449,32.3265306 52.9162883,32.3265306 L53.8559484,32.3265306 C59.022811,32.3265306 59.6207189,35.6822833 59.6207189,39.4204753 L59.6207189,42.6488183 L54.9236863,42.6488183 L54.9236863,39.0807161 C54.9236863,37.678789 54.5821455,36.9139103 53.3861183,36.9139103 C52.3614957,36.9139103 51.8916656,37.678789 51.8916656,39.0807161 L51.8916656,57.5591165 C51.8916656,59.0457732 52.4897849,59.8104416 53.4712922,59.8104416 C54.7102233,59.8104416 55.2652272,58.9608334 55.2652272,57.7712558 L55.2652272,49.8699625 L53.0876927,49.8699625 L53.0876927,45.0275531 L59.8339706,45.0275531 L59.8339706,64.228152 L57.1012208,64.228152 C57.0585282,64.0582724 56.6745061,62.4864657 56.2898499,61.1270084 C55.948309,62.1889661 54.3255671,64.6530612 51.8916656,64.6530612 L51.5928173,64.6530612" id="Fill-18" fill="#FFFFFE"></path>
                        <polyline id="Fill-19" fill="#FFFFFE" points="65.9483912 32.7693598 70.0761508 49.8682461 70.0761508 32.7693598 74.4600523 32.7693598 74.4600523 64.6530612 70.5444102 64.6530612 65.9483912 46.3114487 65.9483912 64.6530612 61.606829 64.6530612 61.606829 32.7693598 65.9483912 32.7693598"></polyline>
                        <path d="M86.4996259,64.6530612 L85.5755094,64.6530612 C81.7948438,64.6530612 79.7786275,62.5661186 79.7786275,58.6477257 L79.7786275,52.3017337 L84.4832016,52.3017337 L84.4832016,57.8384557 C84.4832016,59.2866674 84.9453638,60.0533553 86.0374637,60.0533553 C87.1715594,60.0533553 87.5913099,59.2866674 87.5913099,57.327471 L87.5913099,56.6033651 C87.5913099,54.3460942 87.3813307,53.5368243 85.6590853,51.2793426 L82.6349686,47.3611605 C80.6185444,44.720651 80.0308104,42.6760797 80.0308104,39.5245855 L80.0308104,38.5021944 C80.0308104,34.2855163 82.1308106,32.3265306 85.8690645,32.3265306 L86.7518088,32.3265306 C90.6580461,32.3265306 92.1696886,34.072606 92.1696886,37.8208814 L92.1696886,43.0167362 L87.5913099,43.0167362 L87.5913099,38.4598231 C87.5913099,37.3946392 87.3813307,36.58558 86.2474429,36.58558 C85.1133472,36.58558 84.8609563,37.3096859 84.8609563,38.8002688 L84.8609563,39.3964177 C84.8609563,41.1854967 85.1969231,42.1650949 86.793181,44.2520376 L89.8181292,48.2128017 C91.9601252,51.0238502 92.6318508,52.6423902 92.6318508,56.2201266 L92.6318508,57.2423068 C92.6318508,61.8848056 90.6580461,64.6530612 86.4996259,64.6530612" id="Fill-20" fill="#FFFFFE"></path>
                        <path d="M102.207417,57.847631 L102.207417,50.4891516 L106.814718,50.4891516 L106.814718,57.8048944 C106.814718,61.2080306 105.735614,64.6530612 101.211304,64.6530612 L100.173491,64.6530612 C95.442112,64.6530612 94.4047092,61.1650835 94.4047092,57.9749986 L94.4047092,38.6641744 C94.4047092,35.4315634 95.774081,32.3265306 100.007712,32.3265306 L101.086816,32.3265306 C106.233361,32.3265306 106.814718,35.8142978 106.814718,38.9193307 L106.814718,44.5765577 L102.207417,44.5765577 L102.207417,39.0043827 C102.207417,37.6433388 101.792045,36.919975 100.630153,36.919975 C99.4682623,36.919975 99.1777895,37.6008128 99.1777895,39.0043827 L99.1777895,57.8048944 C99.1777895,59.2086749 99.6342467,59.9741437 100.671444,59.9741437 C101.792045,59.9741437 102.207417,59.1236228 102.207417,57.847631" id="Fill-21" fill="#FFFFFE"></path>
                        <polyline id="Fill-22" fill="#FFFFFE" points="116.647873 50.6396739 113.381133 50.6396739 113.381133 64.6530612 108.587576 64.6530612 108.587576 32.7693598 113.381133 32.7693598 113.381133 45.5400209 116.647873 45.5400209 116.647873 32.7693598 121.4408 32.7693598 121.4408 64.6530612 116.647873 64.6530612 116.647873 50.6396739"></polyline>
                        <path d="M131.118523,39.3448016 C131.118523,37.6858648 130.558789,36.919975 129.440387,36.919975 C128.192488,36.919975 127.719015,37.7281804 127.719015,39.3448016 L127.719015,57.5499486 C127.719015,58.9107821 128.106015,59.9741437 129.482772,59.9741437 C130.773907,59.9741437 131.118523,58.9107821 131.118523,57.5499486 L131.118523,39.3448016 Z M136.066881,57.2095298 C136.066881,61.6335015 134.561054,64.6530612 129.870411,64.6530612 L129.052961,64.6530612 C124.405555,64.6530612 122.770443,61.6335015 122.770443,57.2095298 L122.770443,39.5999579 C122.770443,35.2187227 124.448153,32.3265306 129.009725,32.3265306 L129.827387,32.3265306 C134.561054,32.3265306 136.066881,35.2187227 136.066881,39.5574319 L136.066881,57.2095298 L136.066881,57.2095298 Z" id="Fill-23" fill="#FFFFFE"></path>
                        <path d="M145.744842,39.3448016 C145.744842,37.6858648 145.185135,36.919975 144.066148,36.919975 C142.818309,36.919975 142.345285,37.7281804 142.345285,39.3448016 L142.345285,57.5499486 C142.345285,58.9107821 142.73184,59.9741437 144.108957,59.9741437 C145.40003,59.9741437 145.744842,58.9107821 145.744842,57.5499486 L145.744842,39.3448016 Z M150.692963,57.2095298 C150.692963,61.6335015 149.186569,64.6530612 144.496364,64.6530612 L143.678741,64.6530612 C139.031558,64.6530612 137.396525,61.6335015 137.396525,57.2095298 L137.396525,39.5999579 C137.396525,35.2187227 139.07458,32.3265306 143.636358,32.3265306 L144.453769,32.3265306 C149.186569,32.3265306 150.692963,35.2187227 150.692963,39.5574319 L150.692963,57.2095298 L150.692963,57.2095298 Z" id="Fill-24" fill="#FFFFFE"></path>
                        <polyline id="Fill-25" fill="#FFFFFE" points="156.811013 32.7693598 156.811013 59.7247895 162.659757 59.7247895 162.659757 64.6530612 152.022607 64.6530612 152.022607 32.7693598 156.811013 32.7693598"></polyline>
                    </g>
                    <path d="M96.5,190.5 C112.372177,190.5 127.669585,186.563776 141.307953,179.154179 C171.377767,162.817532 190.5,131.344969 190.5,96.5 C190.5,44.5852335 148.414766,2.5 96.5,2.5 C44.5852335,2.5 2.5,44.5852335 2.5,96.5 C2.5,148.414766 44.5852335,190.5 96.5,190.5 Z" id="Oval" stroke="#FF0000" stroke-width="5" fill-opacity="0" fill="#D8D8D8"></path>
                    <path d="M26.8039014,158.5 L156,29" id="Line" stroke="#FF0000" stroke-width="5" stroke-linecap="square"></path>
                </g>
            </g>
        </g>
    </g>
</svg>